<svg xmlns="http://www.w3.org/2000/svg" xmlns:xlink="http://www.w3.org/1999/xlink" viewBox="0 0 24 24"><defs><linearGradient id="c" x1="50%" x2="50%" y1="0%" y2="100%"><stop offset="0%" stop-color="#DEAE88"/><stop offset="100%" stop-color="#E5C3A8"/></linearGradient><circle id="a" cx="12" cy="12" r="12"/><path id="d" d="M2.73 0C1.37 0 .28 1.062.28 2.37l.214 4.487.003.066C.75 9.636 3.305 12 5.57 12c2.264 0 4.588-2.094 4.931-5.077l.343-4.552C10.843 1.067 9.746 0 8.393 0z"/></defs><g fill="none" fill-rule="evenodd"><mask id="b" fill="#fff"><use xlink:href="#a"/></mask><use xlink:href="#a" fill="#CEEFFF"/><g mask="url(#b)"><path fill="url(#c)" d="M8.314 13.5h6l-.07.589q-.213 1.845-.213 2.793 0 1.092.283 2.618h-6l.053-.548q.12-1.319.132-2.141l.001-.16q0-1.005-.186-3.151" transform="translate(.686 2.25)"/><path fill="#005BD4" d="M.69 22.275c2.072-1.845 4.548-2.832 7.296-3.749q.233-.077.639-.615a.345.345 0 0 1 .605-.114q.364.472.72.73.44.317.844.47l.2.067.837.355a.3.3 0 0 0 .214.008l1.103-.375q.333-.136.984-.526.385-.23.614-.624a.36.36 0 0 1 .592-.046l.037.055q.338.555.48.615l.751.32c3.552 1.534 5.99 2.946 7.394 4.949q2.332 3.328-1.5 5.455h-21l-.42-3.36q-.439-3.572-.39-3.615"/><path fill="#E6F6FF" d="m11.826 19.597.105-.01h.023a.71.71 0 0 1 .71.71l-.003.052-.032.371-.01.066q-.026.133-.29.385l.705 2.153A1.087 1.087 0 0 1 12 24.75a1.123 1.123 0 0 1-1.077-1.44l.629-2.14a2 2 0 0 1-.292-.384q-.045-.084-.06-.413a.75.75 0 0 1 .626-.776"/><path fill="#E9BE9A" fill-rule="nonzero" d="M6.854 9.014q-1.23-.144-1.229 1.217c0 1.36.687 1.565 1.229 1.758q.542.192 0-2.975M16.941 9q1.209 0 1.209 1.132c0 1.133-.626 1.868-1.209 1.868q-.582 0 0-3"/><use xlink:href="#d" fill="#FFE1C6" fill-rule="nonzero" transform="translate(6.375 5.217)"/><path fill="#D4A681" d="m11.315 12.967 1.17-.071a.229.229 0 0 1 .142.416l-.496.34a.38.38 0 0 1-.387.022l-.522-.276a.23.23 0 0 1 .093-.431"/><path fill="#181A1D" d="M11.399 2.839c-2.402-.583-3.109 1.59-3.109 1.59s-.93-.227-1.524.605c-.609.854-.362 1.668-.214 2.534l.214 1.921c0-.515.502-.533.827-1.07.433-.716-.253-1.474.697-1.89.951-.415 1.962.438 3.523.483 1.56.046 2.5-.76 3.584-.482 1.085.276.365 1.2.8 1.89.347.55.893.537.893 1.07 0 0 .077-.926.31-2.265.244-1.404-.855-2.191-.855-2.191s1.037-.605 0-2.195c0 0-.348 1.164-5.146 0"/><path fill="#FFF" fill-opacity=".8" d="M9 9.75a.375.375 0 0 0-.375.375v.375c0 .414.336.75.75.75h.75a.75.75 0 0 0 .75-.75v-.375a.375.375 0 0 0-.375-.375z"/><path fill="#181A1D" d="M9 9h1.5c.621 0 1.125.504 1.125 1.125v.375a1.5 1.5 0 0 1-1.5 1.5h-.75a1.5 1.5 0 0 1-1.5-1.5v-.375C7.875 9.504 8.379 9 9 9m0 .75a.375.375 0 0 0-.375.375v.375c0 .414.336.75.75.75h.75a.75.75 0 0 0 .75-.75v-.375a.375.375 0 0 0-.375-.375zM13.5 9H15c.621 0 1.125.504 1.125 1.125v.375a1.5 1.5 0 0 1-1.5 1.5h-.75a1.5 1.5 0 0 1-1.5-1.5v-.375c0-.621.504-1.125 1.125-1.125m0 .75a.375.375 0 0 0-.375.375v.375c0 .414.336.75.75.75h.75a.75.75 0 0 0 .75-.75v-.375A.375.375 0 0 0 15 9.75z"/><path fill="#FFF" fill-opacity=".8" d="M13.5 9.75a.375.375 0 0 0-.375.375v.375c0 .414.336.75.75.75h.75a.75.75 0 0 0 .75-.75v-.375A.375.375 0 0 0 15 9.75z"/><path fill="#181A1D" d="M10.875 9.75h2.25v.75h-2.25z"/></g></g></svg>