<svg xmlns="http://www.w3.org/2000/svg" viewBox="0 0 100 100"><g fill="none" fill-rule="evenodd"><g transform="translate(-1 -1)"><path fill="#F0F2F5" d="M26.52 10.2h57.12a6.12 6.12 0 0 1 6.12 6.12v12.24a6.12 6.12 0 0 1-6.12 6.12H26.52a6.12 6.12 0 0 1-6.12-6.12V16.32a6.12 6.12 0 0 1 6.12-6.12"/><path fill="#DBDDE0" d="M16.32 38.76h61.2a6.12 6.12 0 0 1 6.12 6.12v12.24a6.12 6.12 0 0 1-6.12 6.12h-61.2a6.12 6.12 0 0 1-6.12-6.12V44.88a6.12 6.12 0 0 1 6.12-6.12"/><circle cx="25.5" cy="51" r="5.1" fill="#FFF"/><path fill="#F0F2F5" d="M28.56 67.32h57.12a6.12 6.12 0 0 1 6.12 6.12v12.24a6.12 6.12 0 0 1-6.12 6.12H28.56a6.12 6.12 0 0 1-6.12-6.12V73.44a6.12 6.12 0 0 1 6.12-6.12"/><path fill="#FFF" d="M38.76 53.04H61.2a2.04 2.04 0 1 1 0 4.08H38.76a2.04 2.04 0 1 1 0-4.08m-6.12-28.56h26.52a2.04 2.04 0 1 1 0 4.08H32.64a2.04 2.04 0 1 1 0-4.08m2.04 57.12H61.2a2.04 2.04 0 1 1 0 4.08H34.68a2.04 2.04 0 1 1 0-4.08m4.08-36.72h30.6a2.04 2.04 0 1 1 0 4.08h-30.6a2.04 2.04 0 1 1 0-4.08m-6.12-28.56H71.4a2.04 2.04 0 1 1 0 4.08H32.64a2.04 2.04 0 1 1 0-4.08m2.04 57.12h38.76a2.04 2.04 0 1 1 0 4.08H34.68a2.04 2.04 0 1 1 0-4.08"/></g><path fill="#707275" d="m66.2 66.418 3.183-3.182 2.386 2.386-3.182 3.182z"/><path fill="#4A4C4F" d="m68.605 68.787 3.182-3.182a1.5 1.5 0 0 1 2.121 0l15.645 15.644a1.5 1.5 0 0 1 0 2.122l-3.182 3.182a1.5 1.5 0 0 1-2.122 0L68.605 70.908a1.5 1.5 0 0 1 0-2.121"/><path fill="#181A1D" d="m70.196 67.196 1.59-1.591a1.5 1.5 0 0 1 2.122 0l15.645 15.644a1.5 1.5 0 0 1 0 2.122l-1.591 1.59z"/><path fill="#FFB53F" d="m80.007 82.31 5.303-5.303 3.182 3.182-5.303 5.303z"/><path fill="#FF9000" d="m82.658 79.658 2.652-2.651 3.182 3.182-2.652 2.651z"/><path fill="#4A4C4F" d="M36.785 33.785c8.787-8.787 23.033-8.787 31.82 0s8.787 23.033 0 31.82-23.033 8.787-31.82 0-8.787-23.033 0-31.82m2.121 2.121c-7.615 7.615-7.615 19.962 0 27.577s19.962 7.616 27.577 0 7.616-19.962 0-27.577-19.962-7.615-27.577 0"/><path fill="#3EA1FA" d="M38.906 35.906c7.615-7.615 19.962-7.615 27.577 0q.267.267.52.54c-7.648-7.09-19.599-6.917-27.036.52-7.438 7.439-7.611 19.39-.52 27.038a20 20 0 0 1-.54-.52c-7.616-7.616-7.616-19.963 0-27.578Z" opacity=".5"/><path fill="#98D7FE" d="M39.967 36.967c7.438-7.438 19.389-7.611 27.037-.52 7.09 7.648 6.917 19.599-.52 27.036-7.438 7.438-19.389 7.611-27.037.52-7.091-7.647-6.918-19.598.52-27.036" opacity=".5"/></g></svg>