<svg xmlns="http://www.w3.org/2000/svg" version="1.1" viewBox="0 0 24 24"><g fill="none" fill-rule="evenodd" stroke="none" stroke-width="1"><path d="M0 0h24v24H0z"/><g transform="translate(3 3)"><path fill="#707275" d="M3 4h12v14H3z"/><path fill="#C8CACD" d="M1 0h16a1 1 0 0 1 1 1v2a1 1 0 0 1-1 1H1a1 1 0 0 1-1-1V1a1 1 0 0 1 1-1"/><path fill="#96989B" d="M1 0h16a1 1 0 0 1 1 1v2a1 1 0 0 1-1 1H1a1 1 0 0 1-1-1V1a1 1 0 0 1 1-1" opacity=".5"/><path fill="#DBDDE0" d="M3 0h12v4H3z"/><circle cx="5" cy="2" r="1" fill="#F4454C"/><circle cx="8" cy="2" r="1" fill="#FF9000"/><path fill="#C8CACD" d="M1 6h16a1 1 0 0 1 1 1v3a1 1 0 0 1-1 1H1a1 1 0 0 1-1-1V7a1 1 0 0 1 1-1m0 7h16a1 1 0 0 1 1 1v3a1 1 0 0 1-1 1H1a1 1 0 0 1-1-1v-3a1 1 0 0 1 1-1"/><path fill="#96989B" d="M1 13h16a1 1 0 0 1 1 1v3a1 1 0 0 1-1 1H1a1 1 0 0 1-1-1v-3a1 1 0 0 1 1-1" opacity=".5"/><path fill="#DBDDE0" d="M3 6h12v5H3zm0 7h12v5H3z"/></g></g></svg>