<svg xmlns="http://www.w3.org/2000/svg" xmlns:xlink="http://www.w3.org/1999/xlink" version="1.1" viewBox="0 0 24 24"><defs><path id="a" d="M0 8.097 8 0l8 8.097v10a1 1 0 0 1-1 1H1a1 1 0 0 1-1-1z"/><path id="c" d="m-1.573 5.798 9-6.3a1 1 0 0 1 1.146 0l9 6.3a1 1 0 0 1 .427.82v1.558a1 1 0 0 1-1.573.82L8 3.095l-8.427 5.9A1 1 0 0 1-2 8.175V6.617a1 1 0 0 1 .427-.819"/></defs><g fill="none" fill-rule="evenodd" stroke="none" stroke-width="1" transform="translate(4 2.903)"><mask id="b" fill="#fff"><use xlink:href="#a"/></mask><use xlink:href="#a" fill="#DBDDE0"/><path fill="#C8CACD" d="m8-.903 8 8v11H8z" mask="url(#b)"/><path fill="#96989B" d="M8 16.097h8v3H8z" mask="url(#b)"/><path fill="#C8CACD" d="M0 16.097h8v3H0z" mask="url(#b)"/><path fill="#FFF" d="M4 9.097h1a1 1 0 0 1 1 1v1a1 1 0 0 1-1 1H4a1 1 0 0 1-1-1v-1a1 1 0 0 1 1-1m7 1a2 2 0 0 1 2 2v4H9v-4a2 2 0 0 1 2-2" mask="url(#b)"/><mask id="d" fill="#fff"><use xlink:href="#c"/></mask><use xlink:href="#c" fill="#65BBFC"/><path fill="#3EA1FA" d="M8-.903h10v11H8z" mask="url(#d)"/></g></svg>