<svg xmlns="http://www.w3.org/2000/svg" xmlns:xlink="http://www.w3.org/1999/xlink" version="1.1" viewBox="0 0 24 24"><defs><path id="a" d="m.684 2.718 8-2.667a1 1 0 0 1 .632 0l8 2.667a1 1 0 0 1 .684.949v6.779a11.54 11.54 0 0 1-6.854 10.546L9 21.946l-2.146-.954A11.54 11.54 0 0 1 0 10.446v-6.78a1 1 0 0 1 .684-.948"/></defs><g fill="none" fill-rule="evenodd" stroke="none" stroke-width="1"><path d="M0 0h24v24H0z"/><g transform="translate(3 1.054)"><mask id="b" fill="#fff"><use xlink:href="#a"/></mask><use xlink:href="#a" fill="#65BBFC"/><path fill="#98D7FE" d="M0-.054h9v2l-9 3z" mask="url(#b)"/><path fill="#3EA1FA" d="m9-.054 9 2v8.201a12 12 0 0 1-7.126 10.966L9 21.946z" mask="url(#b)"/><path fill="#65BBFC" d="M9-.054h9v5l-9-3z" mask="url(#b)"/><path fill="#0076F7" d="m9 6.946 6 2-6 2-6-2z" mask="url(#b)"/><path fill="#005BD4" d="m9 6.946 6 2-6 2z" mask="url(#b)"/><path fill="#FFF" d="m9 4.946 6 2-6 2-6-2z" mask="url(#b)"/><path fill="#C8CACD" d="m9 4.946 6 2-6 2z" mask="url(#b)"/><path fill="#FFF" d="m3 8.946 6 2v5l-6-2.5z" mask="url(#b)"/><path fill="#C8CACD" d="m9 10.946 6-2v4.5l-6 2.5z" mask="url(#b)"/></g></g></svg>