<svg xmlns="http://www.w3.org/2000/svg" xmlns:xlink="http://www.w3.org/1999/xlink" version="1.1" viewBox="0 0 24 24"><defs><circle id="e" cx="10" cy="10" r="4.783"/><circle id="g" cx="10" cy="10" r="3.261"/><path id="a" d="m15.841 1.7 2.46 2.459c.34.34.34.89 0 1.23l-1.075 1.074q.221.45.385.928h1.52c.48 0 .869.39.869.87v3.478a.87.87 0 0 1-.76.863l-.11.007h-1.519q-.165.478-.385.928l1.075 1.075c.34.34.34.89 0 1.23L15.84 18.3a.87.87 0 0 1-.504.247l-.11.008a.87.87 0 0 1-.615-.255l-1.075-1.075q-.45.221-.928.385v1.52a.87.87 0 0 1-.76.862l-.11.007H8.261a.87.87 0 0 1-.87-.87V17.61a8 8 0 0 1-.928-.385L5.388 18.3a.87.87 0 0 1-.503.247l-.111.008a.87.87 0 0 1-.615-.255l-2.46-2.46a.87.87 0 0 1 0-1.23l1.075-1.074q-.221-.45-.385-.928H.869a.87.87 0 0 1-.869-.87V8.261c0-.48.39-.87.87-.87h1.519q.165-.478.385-.928L1.699 5.388a.87.87 0 0 1 0-1.23L4.16 1.7a.87.87 0 0 1 1.23 0l1.074 1.075q.45-.221.928-.385V.869c0-.48.39-.869.87-.869h3.478c.48 0 .87.39.87.87v1.519q.478.165.928.385l1.075-1.075a.87.87 0 0 1 1.23 0"/><path id="c" d="M10 3.913a6.087 6.087 0 1 1 0 12.174 6.087 6.087 0 0 1 0-12.174"/></defs><g fill="none" fill-rule="evenodd" stroke="none" stroke-width="1"><path d="M0 0h24v24H0z"/><g transform="translate(2 2)"><mask id="b" fill="#fff"><use xlink:href="#a"/></mask><use xlink:href="#a" fill="#C8CACD"/><path fill="#96989B" d="M10 0h10v20H10z" mask="url(#b)" opacity=".5"/><circle cx="10" cy="10" r="5.435" fill="#65BBFC" mask="url(#b)"/><mask id="d" fill="#fff"><use xlink:href="#c"/></mask><use xlink:href="#c" fill="#96989B"/><path fill="#707275" d="M10 3h7v14h-7z" mask="url(#d)"/><mask id="f" fill="#fff"><use xlink:href="#e"/></mask><use xlink:href="#e" fill="#FFF"/><path fill="#F0F2F5" d="M10 4h7v12h-7z" mask="url(#f)"/><mask id="h" fill="#fff"><use xlink:href="#g"/></mask><use xlink:href="#g" fill="#3EA1FA"/><path fill="#0076F7" d="M10 6h4v8h-4z" mask="url(#h)"/><circle cx="10" cy="10" r="1.739" fill="#FFF" mask="url(#h)"/></g></g></svg>