<svg xmlns="http://www.w3.org/2000/svg" xmlns:xlink="http://www.w3.org/1999/xlink" version="1.1" viewBox="0 0 24 24"><defs><path id="a" d="M1 0h12a1 1 0 0 1 1 1v14a1 1 0 0 1-1 1H1a1 1 0 0 1-1-1V1a1 1 0 0 1 1-1"/><path id="c" d="M1 0h12a1 1 0 0 1 1 1v14a1 1 0 0 1-1 1H1a1 1 0 0 1-1-1V1a1 1 0 0 1 1-1"/><path id="e" d="M1 0h12a1 1 0 0 1 1 1v14a1 1 0 0 1-1 1H1a1 1 0 0 1-1-1V1a1 1 0 0 1 1-1"/></defs><g fill="none" fill-rule="evenodd" stroke="none" stroke-width="1"><path d="M0 0h24v24H0z"/><g transform="translate(8 2)"><mask id="b" fill="#fff"><use xlink:href="#a"/></mask><use xlink:href="#a" fill="#DBDDE0"/><path fill="#C8CACD" d="m9 2 5 4v10H9z" mask="url(#b)"/></g><g transform="translate(5 4)"><mask id="d" fill="#fff"><use xlink:href="#c"/></mask><use xlink:href="#c" fill="#96989B"/><path fill="#707275" d="m9 2 5 4v10H9z" mask="url(#d)"/></g><g transform="translate(2 6)"><mask id="f" fill="#fff"><use xlink:href="#e"/></mask><use xlink:href="#e" fill="#8AE173"/><path fill="#3FAF38" d="M19 3v2a6 6 0 0 1-5.775 5.996L13 11h-3v3l-5-4 5-4v3h3q6 0 6-6" mask="url(#f)"/><path fill="#5ACA49" d="M4 2h6a1 1 0 0 1 0 2H4a1 1 0 1 1 0-2" mask="url(#f)"/></g><path fill="#FFF" d="M20 7v2a6 6 0 0 1-5.775 5.996L14 15h-3v3l-5-4 5-4v3h3q6 0 6-6"/></g></svg>