<svg xmlns="http://www.w3.org/2000/svg" version="1.1" viewBox="0 0 24 24"><g fill="none" fill-rule="evenodd" stroke="none" stroke-width="1"><path d="M0 0h24v24H0z"/><path fill="#707275" d="M3 3h18a1 1 0 0 1 1 1v16a1 1 0 0 1-1 1H3a1 1 0 0 1-1-1V4a1 1 0 0 1 1-1"/><path fill="#DBDDE0" d="M2 6h3v12H2zm17 0h3v12h-3z"/><path fill="#96989B" d="M5 3h14v3H5zm0 15h14v3H5z"/><path fill="#FFF" d="M5 6h14v12H5z"/><path fill="#FFB53F" d="m11.082 9.027.061.087 2.426 4.044 1.056-1.408H17a.75.75 0 1 1 0 1.5h-1.625l-1.275 1.7a.75.75 0 0 1-1.188.016l-.055-.08-2.298-3.829-1.095 2.193H7a.75.75 0 0 1 0-1.5h1.536l1.293-2.585a.75.75 0 0 1 1.253-.138"/></g></svg>