<svg xmlns="http://www.w3.org/2000/svg" version="1.1" viewBox="0 0 24 24"><g fill="none" fill-rule="evenodd" stroke="none" stroke-width="1"><path d="M0 0h24v24H0z"/><path fill="#96989B" d="M5.5 19h13v1a1.5 1.5 0 0 1-1.5 1.5H6.5a1 1 0 0 1-1-1z"/><path fill="#C8CACD" d="M4 2.5h16a1 1 0 0 1 1 1V18a1 1 0 0 1-1 1H4a1 1 0 0 1-1-1V3.5a1 1 0 0 1 1-1"/><path fill="#96989B" fill-opacity=".5" d="M21 3.5V18a1 1 0 0 1-1 1h-8V2.5h8a1 1 0 0 1 1 1"/><path fill="#707275" d="M18.5 19v1.5a1 1 0 0 1-1 1H12V19z"/><path fill="#96989B" d="M6 15a1 1 0 1 1 0 2 1 1 0 0 1 0-2m3 0a1 1 0 1 1 0 2 1 1 0 0 1 0-2"/><path fill="#707275" d="M15 15h3a1 1 0 0 1 0 2h-3a1 1 0 0 1 0-2"/><path fill="#FFF" d="M6 4.5h12a1 1 0 0 1 1 1V12a1 1 0 0 1-1 1H6a1 1 0 0 1-1-1V5.5a1 1 0 0 1 1-1"/><path fill="#F0F2F5" d="M18 4.5a1 1 0 0 1 1 1V12a1 1 0 0 1-1 1h-6V4.5z"/><path fill="#FFB53F" d="M9 11.25a1.5 1.5 0 0 1-.144-2.993L9 8.25l.064.001a2 2 0 0 1 2.632-1.377 2.25 2.25 0 0 1 3.798 1.46A1.5 1.5 0 0 1 15 11.25z"/><path fill="#FF9000" d="M13.25 6.25c1.187 0 2.16.92 2.244 2.085A1.5 1.5 0 0 1 15 11.25h-3l-.001-4.62c.357-.24.788-.38 1.251-.38"/></g></svg>